<?xml version="1.0" encoding="UTF-8"?>
<svg xmlns="http://www.w3.org/2000/svg" xmlns:xlink="http://www.w3.org/1999/xlink" width="268px" height="50px" viewBox="0 0 269 50" version="1.1">
<g id="surface1">
<path style=" stroke:none;fill-rule:nonzero;fill:rgb(97.647059%,45.490196%,19.607843%);fill-opacity:1;" d="M 19.867188 -0.0117188 C 11.875 -0.00390625 4.675781 4.824219 1.617188 12.222656 C -1.441406 19.621094 0.242188 28.136719 5.886719 33.804688 L 21.949219 49.902344 L 27.953125 43.886719 L 11.855469 27.8125 C 8.050781 24.039062 7.414062 18.109375 10.328125 13.609375 C 13.242188 9.113281 18.90625 7.285156 23.894531 9.230469 C 28.878906 11.175781 31.816406 16.367188 30.925781 21.652344 C 30.035156 26.941406 25.5625 30.875 20.214844 31.074219 L 27.257812 38.132812 C 35.992188 34.5625 40.992188 25.300781 39.191406 16.019531 C 37.394531 6.738281 29.300781 0.0273438 19.867188 -0.0117188 Z M 19.867188 -0.0117188 "/>
<path style=" stroke:none;fill-rule:nonzero;fill:rgb(97.647059%,45.490196%,19.607843%);fill-opacity:1;" d="M 27.550781 19.816406 C 27.550781 15.558594 24.105469 12.105469 19.855469 12.105469 C 15.605469 12.105469 12.160156 15.558594 12.160156 19.816406 C 12.160156 24.078125 15.605469 27.527344 19.855469 27.527344 C 24.105469 27.527344 27.550781 24.078125 27.550781 19.816406 Z M 27.550781 19.816406 "/>
<path style=" stroke:none;fill-rule:nonzero;fill:rgb(30.980393%,30.588236%,30.588236%);fill-opacity:1;" d="M 56.421875 49.03125 C 55.824219 49.660156 54.992188 50.015625 54.121094 50.011719 C 53.257812 50.019531 52.429688 49.664062 51.84375 49.03125 C 51.253906 48.460938 50.914062 47.679688 50.898438 46.855469 L 50.898438 12.496094 C 50.898438 11.675781 51.234375 10.890625 51.820312 10.320312 C 52.390625 9.730469 53.171875 9.402344 53.992188 9.410156 C 54.773438 9.390625 55.539062 9.640625 56.164062 10.117188 C 56.730469 10.523438 57.117188 11.136719 57.246094 11.824219 C 59.621094 10.238281 62.40625 9.394531 65.257812 9.398438 C 69.082031 9.347656 72.75 10.929688 75.339844 13.75 C 78.078125 16.53125 79.585938 20.296875 79.53125 24.199219 C 79.597656 28.082031 78.085938 31.824219 75.339844 34.566406 C 72.726562 37.347656 69.070312 38.902344 65.257812 38.851562 C 62.433594 38.914062 59.660156 38.066406 57.355469 36.425781 L 57.355469 46.824219 C 57.359375 47.65625 57.019531 48.453125 56.421875 49.03125 Z M 70.835938 18.230469 C 69.402344 16.65625 67.363281 15.773438 65.234375 15.804688 C 63.09375 15.753906 61.035156 16.652344 59.613281 18.261719 C 58.09375 19.925781 57.28125 22.121094 57.34375 24.375 C 57.230469 26.53125 58.070312 28.628906 59.644531 30.105469 C 61.03125 31.707031 63.046875 32.617188 65.160156 32.585938 C 67.296875 32.605469 69.335938 31.699219 70.761719 30.105469 C 72.277344 28.527344 73.113281 26.414062 73.082031 24.222656 C 73.113281 22.011719 72.3125 19.871094 70.835938 18.230469 Z M 70.835938 18.230469 "/>
<path style=" stroke:none;fill-rule:nonzero;fill:rgb(30.980393%,30.588236%,30.588236%);fill-opacity:1;" d="M 111.929688 23.363281 C 111.960938 24.152344 111.648438 24.917969 111.070312 25.460938 C 110.449219 26.011719 109.632812 26.296875 108.804688 26.257812 L 90.003906 26.257812 C 90.246094 27.738281 90.949219 29.105469 92.011719 30.160156 C 93.449219 31.707031 95.421875 32.648438 97.527344 32.792969 C 99.726562 33.132812 101.972656 32.617188 103.800781 31.347656 C 104.414062 30.707031 105.269531 30.363281 106.15625 30.398438 C 106.925781 30.3125 107.6875 30.597656 108.21875 31.160156 C 108.742188 31.660156 109.042969 32.355469 109.042969 33.082031 C 109.042969 33.808594 108.742188 34.5 108.21875 35 C 105.382812 37.601562 101.648438 38.992188 97.808594 38.875 C 93.914062 38.941406 90.171875 37.363281 87.496094 34.523438 C 81.882812 28.722656 81.882812 19.503906 87.496094 13.703125 C 90.078125 10.890625 93.734375 9.308594 97.546875 9.355469 C 101.242188 9.265625 104.816406 10.660156 107.480469 13.226562 C 110.140625 15.800781 111.699219 19.3125 111.820312 23.015625 Z M 97.722656 14.976562 C 95.691406 15.007812 93.742188 15.78125 92.242188 17.152344 C 90.992188 18.226562 90.125 19.675781 89.765625 21.285156 L 106.449219 21.285156 C 105.941406 19.679688 104.941406 18.277344 103.59375 17.273438 C 101.925781 15.90625 99.871094 15.101562 97.722656 14.976562 Z M 97.722656 14.976562 "/>
<path style=" stroke:none;fill-rule:nonzero;fill:rgb(30.980393%,30.588236%,30.588236%);fill-opacity:1;" d="M 119.058594 34.652344 C 116.339844 31.898438 114.855469 28.160156 114.9375 24.289062 C 114.871094 20.375 116.355469 16.597656 119.058594 13.78125 C 123.714844 8.742188 131.367188 7.917969 136.980469 11.855469 C 137.125 11.15625 137.507812 10.527344 138.066406 10.082031 C 138.660156 9.609375 139.402344 9.359375 140.160156 9.375 C 140.980469 9.359375 141.769531 9.691406 142.332031 10.289062 C 142.917969 10.859375 143.253906 11.644531 143.253906 12.464844 L 143.253906 35.304688 C 143.210938 43.097656 136.917969 49.402344 129.144531 49.445312 C 126.992188 49.464844 124.871094 48.960938 122.957031 47.976562 C 122.183594 47.640625 121.601562 46.980469 121.363281 46.171875 C 121.082031 45.363281 121.144531 44.476562 121.535156 43.714844 C 121.894531 42.957031 122.542969 42.378906 123.335938 42.113281 C 124.136719 41.835938 125.011719 41.878906 125.777344 42.234375 C 126.980469 42.824219 128.304688 43.109375 129.644531 43.0625 C 131.304688 43.023438 132.894531 42.382812 134.125 41.265625 C 135.527344 40.117188 136.5 38.519531 136.871094 36.742188 C 134.589844 38.34375 131.863281 39.183594 129.078125 39.144531 C 125.246094 39.1875 121.585938 37.546875 119.058594 34.652344 Z M 121.296875 24.308594 C 121.25 26.515625 122.054688 28.652344 123.542969 30.28125 C 124.941406 31.894531 126.980469 32.800781 129.109375 32.761719 C 131.230469 32.804688 133.265625 31.917969 134.679688 30.335938 C 136.183594 28.699219 136.992188 26.535156 136.925781 24.308594 C 136.984375 22.054688 136.171875 19.867188 134.65625 18.195312 C 133.265625 16.59375 131.242188 15.675781 129.121094 15.6875 C 127 15.699219 124.984375 16.632812 123.609375 18.25 C 122.09375 19.902344 121.265625 22.066406 121.296875 24.308594 Z M 121.296875 24.308594 "/>
<path style=" stroke:none;fill-rule:nonzero;fill:rgb(30.980393%,30.588236%,30.588236%);fill-opacity:1;" d="M 156.507812 3.1875 L 156.507812 4.425781 C 156.527344 5.289062 156.195312 6.117188 155.59375 6.734375 C 155.011719 7.351562 154.195312 7.695312 153.347656 7.679688 C 152.492188 7.691406 151.671875 7.347656 151.078125 6.734375 C 150.460938 6.128906 150.121094 5.300781 150.136719 4.4375 L 150.136719 3.199219 C 150.175781 1.425781 151.621094 0.0117188 153.390625 0.0117188 C 154.234375 -0.0117188 155.046875 0.320312 155.636719 0.925781 C 156.222656 1.527344 156.535156 2.347656 156.507812 3.1875 Z M 156.507812 3.1875 "/>
<path style=" stroke:none;fill-rule:nonzero;fill:rgb(30.980393%,30.588236%,30.588236%);fill-opacity:1;" d="M 151.046875 10.34375 C 152.308594 9.113281 154.320312 9.113281 155.582031 10.34375 C 156.195312 10.964844 156.523438 11.808594 156.496094 12.683594 L 156.496094 35.71875 C 156.515625 36.570312 156.1875 37.390625 155.582031 37.992188 C 154.992188 38.597656 154.179688 38.925781 153.335938 38.90625 C 151.566406 38.90625 150.121094 37.492188 150.082031 35.71875 L 150.082031 12.671875 C 150.066406 11.792969 150.414062 10.953125 151.046875 10.34375 Z M 151.046875 10.34375 "/>
<path style=" stroke:none;fill-rule:nonzero;fill:rgb(97.647059%,45.490196%,19.607843%);fill-opacity:1;" d="M 168.835938 49.03125 C 168.234375 49.660156 167.402344 50.015625 166.535156 50.011719 C 165.675781 50.019531 164.851562 49.664062 164.265625 49.03125 C 163.675781 48.460938 163.335938 47.679688 163.324219 46.855469 L 163.324219 12.496094 C 163.316406 10.777344 164.699219 9.375 166.414062 9.363281 C 167.199219 9.347656 167.964844 9.597656 168.585938 10.070312 C 169.152344 10.480469 169.542969 11.09375 169.671875 11.78125 C 172.046875 10.195312 174.839844 9.351562 177.691406 9.355469 C 181.519531 9.304688 185.183594 10.886719 187.777344 13.703125 C 190.507812 16.488281 192.011719 20.253906 191.953125 24.15625 C 192.027344 28.039062 190.515625 31.78125 187.777344 34.523438 C 185.164062 37.304688 181.503906 38.859375 177.691406 38.808594 C 174.867188 38.871094 172.097656 38.023438 169.792969 36.382812 L 169.792969 46.78125 C 169.796875 47.632812 169.453125 48.445312 168.835938 49.03125 Z M 183.25 18.230469 C 181.8125 16.65625 179.777344 15.773438 177.648438 15.804688 C 175.523438 15.769531 173.492188 16.667969 172.082031 18.261719 C 170.558594 19.925781 169.742188 22.117188 169.8125 24.375 C 169.695312 26.53125 170.539062 28.628906 172.113281 30.105469 C 173.496094 31.707031 175.515625 32.617188 177.628906 32.585938 C 179.761719 32.605469 181.804688 31.699219 183.226562 30.105469 C 184.75 28.53125 185.589844 26.414062 185.5625 24.222656 C 185.574219 22.003906 184.746094 19.863281 183.25 18.230469 Z M 183.25 18.230469 "/>
<path style=" stroke:none;fill-rule:nonzero;fill:rgb(97.647059%,45.490196%,19.607843%);fill-opacity:1;" d="M 224.332031 23.363281 C 224.363281 24.152344 224.050781 24.921875 223.472656 25.460938 C 222.851562 26.011719 222.035156 26.296875 221.207031 26.257812 L 202.460938 26.257812 C 202.703125 27.738281 203.40625 29.105469 204.46875 30.160156 C 205.90625 31.707031 207.878906 32.648438 209.984375 32.792969 C 212.183594 33.132812 214.425781 32.617188 216.257812 31.347656 C 216.871094 30.707031 217.726562 30.363281 218.613281 30.398438 C 219.378906 30.3125 220.144531 30.597656 220.675781 31.160156 C 221.203125 31.660156 221.503906 32.355469 221.503906 33.082031 C 221.503906 33.808594 221.203125 34.503906 220.675781 35 C 217.839844 37.601562 214.105469 38.992188 210.265625 38.875 C 206.371094 38.941406 202.625 37.363281 199.953125 34.523438 C 194.335938 28.722656 194.335938 19.503906 199.953125 13.703125 C 202.535156 10.890625 206.191406 9.308594 210.003906 9.355469 C 213.699219 9.265625 217.273438 10.660156 219.9375 13.226562 C 222.597656 15.800781 224.152344 19.3125 224.277344 23.015625 L 224.277344 23.308594 Z M 210.125 14.976562 C 208.089844 15.003906 206.136719 15.777344 204.632812 17.152344 C 203.386719 18.230469 202.519531 19.679688 202.15625 21.285156 L 218.839844 21.285156 C 218.332031 19.679688 217.335938 18.277344 215.984375 17.273438 C 214.324219 15.90625 212.269531 15.101562 210.125 14.976562 Z M 210.125 14.976562 "/>
<path style=" stroke:none;fill-rule:nonzero;fill:rgb(97.647059%,45.490196%,19.607843%);fill-opacity:1;" d="M 231.460938 34.652344 C 228.746094 31.898438 227.257812 28.160156 227.339844 24.289062 C 227.273438 20.378906 228.757812 16.601562 231.460938 13.78125 C 236.117188 8.742188 243.769531 7.917969 249.382812 11.855469 C 249.527344 11.15625 249.914062 10.53125 250.46875 10.082031 C 251.0625 9.609375 251.804688 9.359375 252.5625 9.375 C 253.382812 9.359375 254.171875 9.691406 254.734375 10.289062 C 255.324219 10.859375 255.65625 11.644531 255.65625 12.464844 L 255.65625 35.304688 C 255.613281 43.097656 249.320312 49.402344 241.546875 49.445312 C 239.390625 49.46875 237.265625 48.964844 235.347656 47.976562 C 234.574219 47.644531 233.992188 46.980469 233.753906 46.171875 C 233.476562 45.363281 233.539062 44.476562 233.925781 43.714844 C 234.285156 42.957031 234.933594 42.378906 235.726562 42.113281 C 236.527344 41.835938 237.402344 41.878906 238.171875 42.234375 C 239.371094 42.824219 240.699219 43.109375 242.035156 43.0625 C 243.695312 43.023438 245.285156 42.382812 246.515625 41.265625 C 247.917969 40.113281 248.882812 38.519531 249.253906 36.742188 C 246.988281 38.3125 244.289062 39.136719 241.535156 39.101562 C 237.691406 39.167969 234.007812 37.542969 231.460938 34.652344 Z M 233.699219 24.308594 C 233.652344 26.511719 234.453125 28.652344 235.933594 30.28125 C 237.363281 31.839844 239.378906 32.730469 241.492188 32.742188 C 243.605469 32.75 245.625 31.878906 247.070312 30.335938 C 248.574219 28.699219 249.382812 26.535156 249.316406 24.308594 C 249.375 22.054688 248.5625 19.867188 247.050781 18.195312 C 245.65625 16.589844 243.636719 15.671875 241.511719 15.679688 C 239.386719 15.691406 237.375 16.628906 236 18.25 C 234.492188 19.902344 233.675781 22.070312 233.710938 24.308594 Z M 233.699219 24.308594 "/>
<path style=" stroke:none;fill-rule:nonzero;fill:rgb(97.647059%,45.490196%,19.607843%);fill-opacity:1;" d="M 268.917969 3.1875 L 268.917969 4.425781 C 268.941406 5.289062 268.613281 6.121094 268.007812 6.734375 C 267.429688 7.351562 266.617188 7.695312 265.773438 7.679688 C 263.972656 7.679688 262.515625 6.21875 262.515625 4.414062 L 262.515625 3.175781 C 262.511719 2.332031 262.851562 1.519531 263.460938 0.933594 C 264.054688 0.320312 264.875 -0.0234375 265.726562 -0.0117188 C 266.566406 -0.03125 267.378906 0.300781 267.964844 0.902344 C 268.585938 1.496094 268.933594 2.324219 268.917969 3.1875 Z M 268.917969 3.1875 "/>
<path style=" stroke:none;fill-rule:nonzero;fill:rgb(97.647059%,45.490196%,19.607843%);fill-opacity:1;" d="M 263.460938 10.34375 C 264.722656 9.113281 266.734375 9.113281 267.996094 10.34375 C 268.609375 10.964844 268.941406 11.808594 268.910156 12.683594 L 268.910156 35.71875 C 268.929688 36.570312 268.601562 37.394531 267.996094 37.992188 C 267.410156 38.59375 266.601562 38.921875 265.761719 38.90625 C 264.90625 38.917969 264.085938 38.574219 263.492188 37.960938 C 262.882812 37.375 262.542969 36.5625 262.546875 35.71875 L 262.546875 12.671875 C 262.519531 11.800781 262.847656 10.960938 263.460938 10.34375 Z M 263.460938 10.34375 "/>
</g>
</svg>
