<?xml version="1.0" encoding="UTF-8"?>
<svg xmlns="http://www.w3.org/2000/svg" xmlns:xlink="http://www.w3.org/1999/xlink" width="229px" height="50px" viewBox="0 0 229 50" version="1.1">
<g id="surface1">
<path style=" stroke:none;fill-rule:evenodd;fill:rgb(99.607843%,86.666667%,0%);fill-opacity:1;" d="M 122.09375 49.636719 C 124.605469 49.277344 126.890625 48.582031 129.152344 47.554688 C 131.125 46.660156 133.097656 45.320312 134.695312 43.972656 C 136.3125 42.605469 137.796875 40.917969 139.042969 39.179688 C 143.84375 32.476562 144.914062 22.632812 141.460938 15.054688 C 138.855469 9.34375 135.242188 5.503906 129.511719 2.535156 C 128.246094 1.878906 126.683594 1.285156 125.140625 0.867188 C 124.292969 0.632812 123.46875 0.460938 122.613281 0.324219 C 119.894531 -0.109375 117.28125 -0.105469 114.5625 0.324219 C 112.1875 0.703125 109.734375 1.460938 107.660156 2.535156 C 104.234375 4.304688 102.117188 5.972656 99.828125 8.480469 C 93.480469 15.445312 91.976562 26.660156 95.890625 35.230469 C 96.6875 36.976562 98.808594 40.542969 100.183594 41.765625 C 100.542969 42.085938 100.578125 42.136719 100.882812 42.46875 C 102.554688 44.289062 105.226562 46.246094 108.015625 47.5625 C 110.152344 48.566406 112.6875 49.296875 115.082031 49.640625 C 117.460938 49.976562 119.710938 49.976562 122.09375 49.636719 Z M 122.09375 49.636719 "/>
<path style=" stroke:none;fill-rule:evenodd;fill:rgb(0%,39.215687%,82.352942%);fill-opacity:1;" d="M 200.308594 16.183594 C 200.277344 14.507812 200.191406 13.273438 198.703125 12.871094 C 197.179688 12.457031 195.910156 13.570312 195.910156 15.035156 L 195.910156 34.871094 C 195.910156 36.453125 197.453125 37.578125 199.011719 36.917969 C 200.53125 36.269531 200.300781 34.4375 200.300781 32.621094 C 200.300781 28.914062 200.3125 25.210938 200.300781 21.503906 C 200.296875 20.101562 200.085938 19.40625 202.214844 17.898438 C 203.292969 17.140625 204.59375 16.347656 206.378906 16.414062 C 210.421875 16.570312 210.238281 19.984375 210.238281 23.617188 C 210.238281 27.28125 210.140625 31.085938 210.234375 34.734375 C 210.261719 35.816406 210.488281 36.101562 211.085938 36.621094 C 211.640625 37.101562 212.453125 37.234375 213.234375 36.957031 C 214.847656 36.382812 214.628906 34.570312 214.628906 32.761719 C 214.628906 29.054688 214.632812 25.351562 214.628906 21.644531 C 214.625 20.058594 214.328125 19.5625 216.4375 17.9375 C 217.4375 17.171875 218.863281 16.40625 220.5625 16.40625 C 225.441406 16.40625 224.632812 21.570312 224.632812 25.726562 C 224.632812 26.851562 224.5 35.019531 224.761719 35.730469 C 225.472656 37.65625 229.023438 37.785156 229.023438 34.589844 L 229.023438 19.816406 C 229.023438 8.949219 216.933594 12.15625 214.414062 16.734375 L 214.179688 16.363281 C 212.824219 13.773438 211.589844 12.5 207.777344 12.5 C 206.238281 12.5 204.625 13.054688 203.484375 13.6875 C 201.472656 14.808594 201.449219 15.28125 200.308594 16.183594 Z M 200.308594 16.183594 "/>
<path style=" stroke:none;fill-rule:evenodd;fill:rgb(0%,39.215687%,82.352942%);fill-opacity:1;" d="M 42.523438 23.617188 C 42.925781 23.03125 43.203125 22.796875 43.710938 22.199219 C 44.074219 21.765625 44.527344 21.285156 44.878906 20.835938 L 46.109375 19.394531 C 46.347656 19.121094 46.492188 19.03125 46.722656 18.746094 C 46.964844 18.445312 47.035156 18.324219 47.296875 18.054688 C 50.417969 14.878906 47.410156 12.1875 45.167969 12.542969 C 43.902344 12.746094 42.972656 14.125 42.332031 14.90625 C 41.546875 15.863281 40.703125 16.75 39.953125 17.730469 C 39.613281 18.175781 35.703125 22.984375 35.222656 23.160156 L 35.222656 8.5625 C 35.222656 6.835938 35.417969 5.601562 34.421875 4.515625 C 32.621094 2.546875 29.027344 3.5625 28.96875 6.726562 C 28.855469 12.832031 28.972656 19.921875 28.972656 26.148438 C 28.972656 28.046875 28.625 34.261719 29.414062 35.414062 C 30.1875 36.546875 31.453125 37.078125 32.839844 36.769531 C 34.011719 36.507812 34.976562 35.488281 35.164062 34.300781 C 35.519531 32.082031 34.679688 30.835938 35.707031 29.941406 C 36.550781 29.203125 37.117188 28.101562 38.136719 27.519531 L 42.207031 33.574219 C 42.796875 34.429688 43.636719 35.929688 44.4375 36.40625 C 45.734375 37.171875 47.355469 36.917969 48.230469 36.007812 C 49.121094 35.085938 49.714844 33.71875 48.871094 32.246094 Z M 42.523438 23.617188 "/>
<path style=" stroke:none;fill-rule:evenodd;fill:rgb(0%,39.215687%,82.352942%);fill-opacity:1;" d="M 56.222656 22.453125 C 56.195312 20.933594 57.222656 19.476562 57.972656 18.757812 C 61.332031 15.539062 67.84375 17.78125 67.703125 22.453125 Z M 56.273438 26.761719 C 59.351562 26.308594 70.527344 27.367188 72.265625 26.324219 C 74.359375 25.074219 73.8125 22.441406 72.972656 20.066406 C 71.527344 15.984375 68.394531 13.207031 64.164062 12.445312 C 57.707031 11.277344 51.179688 15.210938 49.925781 22.234375 C 48.058594 32.703125 56.898438 39.285156 67.023438 36.550781 C 68.933594 36.035156 71.820312 35.113281 71.492188 32.796875 C 71.335938 31.707031 70.511719 31.003906 69.445312 30.753906 C 68.234375 30.46875 67.375 31.175781 66.371094 31.53125 C 61.386719 33.296875 57.066406 31.257812 56.273438 26.761719 Z M 56.273438 26.761719 "/>
<path style=" stroke:none;fill-rule:evenodd;fill:rgb(0%,39.215687%,82.352942%);fill-opacity:1;" d="M 180.285156 16.546875 C 185.078125 15.554688 188.394531 19.386719 188.90625 23.523438 C 189.511719 28.433594 186.953125 32.636719 182.972656 33.363281 C 172.988281 35.179688 170.867188 18.496094 180.285156 16.546875 Z M 169.714844 24.601562 C 169.714844 31.820312 174.289062 37.367188 181.089844 37.367188 L 182.214844 37.367188 C 188.890625 37.367188 193.625 31.667969 193.582031 24.882812 C 193.480469 8.1875 169.714844 8.640625 169.714844 24.601562 Z M 169.714844 24.601562 "/>
<path style=" stroke:none;fill-rule:evenodd;fill:rgb(0%,39.215687%,82.352942%);fill-opacity:1;" d="M 4.167969 12.839844 C 3.199219 12.890625 -0.046875 12.511719 0 15.597656 C 0.046875 18.644531 3.09375 18.296875 4.167969 18.355469 C 4.558594 20.769531 3.878906 28.910156 4.292969 32.035156 C 4.832031 36.148438 8.226562 37.660156 12.734375 37.042969 C 14.71875 36.773438 16.40625 35.765625 15.777344 33.449219 C 15.035156 30.730469 12.660156 32.199219 11.285156 31.058594 C 10 29.988281 10.464844 26.949219 10.464844 25.023438 C 10.464844 23.320312 10.273438 19.84375 10.515625 18.355469 C 11.734375 18.289062 15.558594 18.96875 15.542969 15.597656 C 15.527344 12.25 11.839844 12.910156 10.515625 12.839844 C 10.289062 11.441406 10.710938 9.414062 10.285156 8.140625 C 9.339844 5.304688 5.21875 5.546875 4.375 8.113281 C 3.972656 9.332031 4.386719 11.472656 4.167969 12.839844 Z M 4.167969 12.839844 "/>
<path style=" stroke:none;fill-rule:evenodd;fill:rgb(0%,39.215687%,82.352942%);fill-opacity:1;" d="M 77.488281 12.839844 C 76.539062 12.890625 73.300781 12.515625 73.351562 15.597656 C 73.402344 18.644531 76.390625 18.296875 77.488281 18.355469 C 77.871094 20.730469 77.210938 28.691406 77.632812 32.015625 C 78.15625 36.152344 81.550781 37.644531 86.054688 37.046875 C 88.058594 36.78125 89.761719 35.769531 89.117188 33.433594 C 88.375 30.742188 86.117188 32.203125 84.601562 31.066406 C 83.351562 30.128906 83.789062 26.722656 83.789062 25.023438 C 83.789062 23.320312 83.59375 19.84375 83.835938 18.355469 C 85.125 18.285156 88.898438 18.953125 88.882812 15.597656 C 88.863281 12.21875 85.078125 12.90625 83.835938 12.839844 C 83.613281 11.472656 84.027344 9.332031 83.628906 8.113281 C 82.757812 5.46875 78.621094 5.375 77.71875 8.140625 C 77.292969 9.433594 77.714844 11.4375 77.488281 12.839844 Z M 77.488281 12.839844 "/>
<path style=" stroke:none;fill-rule:evenodd;fill:rgb(0%,39.215687%,82.352942%);fill-opacity:1;" d="M 148.398438 24.320312 L 148.398438 25.445312 C 148.398438 31.890625 153.359375 37.367188 159.742188 37.367188 C 162.125 37.367188 163.429688 37.328125 165.625 36.265625 C 166.367188 35.90625 166.792969 35.597656 167.410156 35.097656 C 167.945312 34.660156 168.601562 34.332031 168.660156 33.328125 C 168.769531 31.414062 166.542969 30.707031 165.101562 31.800781 C 163.484375 33.03125 162.691406 33.464844 160.304688 33.464844 C 150.605469 33.464844 150.222656 16.40625 160.585938 16.40625 C 164.996094 16.40625 165.082031 19.335938 167.316406 18.542969 C 169.027344 17.9375 169.566406 15.628906 165.636719 13.632812 C 158.992188 10.253906 148.398438 14.394531 148.398438 24.320312 Z M 148.398438 24.320312 "/>
<path style=" stroke:none;fill-rule:evenodd;fill:rgb(0%,39.215687%,82.352942%);fill-opacity:1;" d="M 18.621094 34.449219 C 18.996094 36.269531 21.40625 37.671875 23.324219 36.390625 C 25.289062 35.074219 24.792969 32.96875 24.792969 30.226562 C 24.792969 27.949219 24.9375 16.25 24.746094 15.046875 C 24.425781 13.054688 22.042969 11.785156 19.953125 13.035156 C 18.09375 14.148438 18.542969 16.808594 18.542969 19.253906 C 18.542969 21.460938 18.390625 33.3125 18.621094 34.449219 Z M 18.621094 34.449219 "/>
</g>
</svg>
