<?xml version="1.0" encoding="UTF-8"?>
<svg xmlns="http://www.w3.org/2000/svg" xmlns:xlink="http://www.w3.org/1999/xlink" width="70px" height="50px" viewBox="0 0 70 50" version="1.1">
<g id="surface1">
<path style=" stroke:none;fill-rule:evenodd;fill:rgb(30.19608%,29.803923%,29.411766%);fill-opacity:1;" d="M 35.007812 7.128906 C 36.449219 6.402344 38.199219 6.007812 39.796875 5.871094 L 41.59375 5.710938 C 43.566406 5.542969 45.535156 5.644531 47.507812 5.644531 L 48.589844 5.644531 L 48.589844 6.734375 C 48.589844 11.5625 48.589844 16.394531 48.589844 21.226562 L 48.589844 21.78125 C 48.589844 26.769531 44.535156 30.847656 39.578125 30.847656 L 21.410156 30.847656 L 21.410156 5.644531 L 22.488281 5.644531 C 24.464844 5.644531 26.429688 5.515625 28.40625 5.667969 L 30.203125 5.804688 C 31.910156 5.933594 33.472656 6.351562 35.007812 7.128906 Z M 35.007812 7.128906 "/>
<path style=" stroke:none;fill-rule:evenodd;fill:rgb(37.254903%,71.764708%,30.588236%);fill-opacity:1;" d="M 22.488281 6.734375 L 22.488281 29.761719 L 39.578125 29.761719 C 43.941406 29.761719 47.507812 26.167969 47.507812 21.78125 L 47.507812 21.226562 C 47.507812 16.421875 47.507812 11.738281 47.507812 6.734375 C 45.613281 6.734375 43.609375 6.6875 41.6875 6.796875 L 39.890625 6.953125 C 38.128906 7.167969 36.347656 7.582031 35 8.363281 C 33.542969 7.519531 31.953125 7.097656 30.117188 6.890625 L 28.320312 6.75 C 26.359375 6.660156 24.351562 6.734375 22.488281 6.734375 Z M 22.488281 6.734375 "/>
<path style=" stroke:none;fill-rule:evenodd;fill:rgb(53.725493%,76.862746%,37.254903%);fill-opacity:1;" d="M 24.734375 29.761719 L 39.578125 29.761719 C 41.511719 29.761719 43.285156 29.054688 44.664062 27.890625 C 43.054688 24.125 39.332031 21.488281 35 21.488281 C 29.976562 21.488281 25.78125 25.027344 24.734375 29.761719 Z M 24.734375 29.761719 "/>
<path style=" stroke:none;fill-rule:evenodd;fill:rgb(29.019609%,61.960787%,29.411766%);fill-opacity:1;" d="M 35 29.761719 L 39.667969 29.6875 C 41.578125 29.6875 43.3125 29.015625 44.664062 27.890625 C 46.40625 26.445312 47.507812 24.253906 47.507812 21.78125 L 47.507812 21.226562 C 47.507812 16.421875 47.507812 11.738281 47.507812 6.734375 C 45.613281 6.734375 43.609375 6.6875 41.6875 6.796875 L 39.890625 6.953125 C 38.128906 7.167969 36.347656 7.582031 35 8.363281 Z M 35 29.761719 "/>
<path style=" stroke:none;fill-rule:evenodd;fill:rgb(37.254903%,71.764708%,30.588236%);fill-opacity:1;" d="M 35 29.761719 L 39.605469 29.761719 C 41.539062 29.761719 43.285156 29.054688 44.664062 27.890625 C 43.070312 24.167969 39.269531 21.546875 35 21.488281 Z M 35 29.761719 "/>
<path style=" stroke:none;fill-rule:evenodd;fill:rgb(30.19608%,29.803923%,29.411766%);fill-opacity:1;" d="M 41.6875 6.042969 C 41.34375 2.644531 38.492188 0 35.027344 0 C 31.566406 0 28.714844 2.621094 28.320312 6 L 30.117188 6.140625 C 30.4375 3.699219 32.503906 1.8125 35.019531 1.8125 C 37.535156 1.8125 39.621094 3.730469 39.890625 6.199219 Z M 41.6875 6.042969 "/>
<path style=" stroke:none;fill-rule:evenodd;fill:rgb(30.19608%,29.803923%,29.411766%);fill-opacity:1;" d="M 37.925781 22.550781 C 37.140625 23.382812 36.359375 24.21875 35.574219 25.050781 L 35 25.667969 L 34.425781 25.050781 C 33.640625 24.21875 32.855469 23.382812 32.074219 22.550781 L 31.667969 22.117188 L 31.964844 21.601562 C 32.59375 20.511719 33.769531 19.925781 35 19.925781 C 36.230469 19.925781 37.402344 20.511719 38.035156 21.601562 L 38.328125 22.117188 Z M 37.925781 22.550781 "/>
<path style=" stroke:none;fill-rule:evenodd;fill:rgb(99.215686%,97.254902%,70.588237%);fill-opacity:1;" d="M 37.347656 22.003906 C 36.566406 22.835938 35.78125 23.671875 35 24.507812 C 34.21875 23.671875 33.433594 22.835938 32.648438 22.003906 C 33.144531 21.144531 34.074219 20.722656 35 20.722656 C 35.925781 20.722656 36.851562 21.144531 37.347656 22.003906 Z M 37.347656 22.003906 "/>
<path style=" stroke:none;fill-rule:evenodd;fill:rgb(98.823529%,81.568629%,40.000001%);fill-opacity:1;" d="M 37.347656 22.003906 C 36.566406 22.835938 35.78125 23.671875 35 24.507812 L 35 20.722656 C 35.925781 20.722656 36.851562 21.144531 37.347656 22.003906 Z M 37.347656 22.003906 "/>
<path style=" stroke:none;fill-rule:evenodd;fill:rgb(30.19608%,29.803923%,29.411766%);fill-opacity:1;" d="M 29.128906 9.871094 C 32.640625 9.871094 35.484375 12.738281 35.484375 16.265625 C 35.484375 19.792969 32.640625 22.660156 29.128906 22.660156 C 25.617188 22.660156 22.777344 19.792969 22.777344 16.265625 C 22.777344 12.738281 25.617188 9.871094 29.128906 9.871094 Z M 29.128906 9.871094 "/>
<path style=" stroke:none;fill-rule:evenodd;fill:rgb(93.333334%,93.725491%,93.333334%);fill-opacity:1;" d="M 29.128906 10.960938 C 32.039062 10.960938 34.402344 13.335938 34.402344 16.265625 C 34.402344 19.195312 32.039062 21.570312 29.128906 21.570312 C 26.214844 21.570312 23.855469 19.195312 23.855469 16.265625 C 23.855469 13.335938 26.214844 10.960938 29.128906 10.960938 Z M 29.128906 10.960938 "/>
<path style=" stroke:none;fill-rule:evenodd;fill:rgb(99.607843%,99.607843%,99.607843%);fill-opacity:1;" d="M 29.128906 10.960938 C 31.535156 10.960938 33.5625 12.578125 34.195312 14.789062 C 33.5625 17.003906 31.535156 18.621094 29.128906 18.621094 C 26.726562 18.621094 24.699219 17.003906 24.0625 14.789062 C 24.699219 12.578125 26.726562 10.960938 29.128906 10.960938 Z M 29.128906 10.960938 "/>
<path style=" stroke:none;fill-rule:evenodd;fill:rgb(30.19608%,29.803923%,29.411766%);fill-opacity:1;" d="M 40.867188 9.871094 C 44.378906 9.871094 47.222656 12.738281 47.222656 16.265625 C 47.222656 19.792969 44.378906 22.660156 40.867188 22.660156 C 37.359375 22.660156 34.511719 19.796875 34.511719 16.265625 C 34.511719 12.738281 37.359375 9.871094 40.867188 9.871094 Z M 40.867188 9.871094 "/>
<path style=" stroke:none;fill-rule:evenodd;fill:rgb(93.333334%,93.725491%,93.333334%);fill-opacity:1;" d="M 40.867188 10.960938 C 43.78125 10.960938 46.144531 13.335938 46.144531 16.265625 C 46.144531 19.195312 43.78125 21.570312 40.867188 21.570312 C 37.957031 21.570312 35.597656 19.195312 35.597656 16.265625 C 35.597656 13.335938 37.957031 10.960938 40.867188 10.960938 Z M 40.867188 10.960938 "/>
<path style=" stroke:none;fill-rule:evenodd;fill:rgb(99.607843%,99.607843%,99.607843%);fill-opacity:1;" d="M 40.867188 10.960938 C 43.273438 10.960938 45.300781 12.578125 45.9375 14.789062 C 45.300781 17.003906 43.273438 18.621094 40.867188 18.621094 C 38.464844 18.621094 36.4375 17.003906 35.800781 14.789062 C 36.4375 12.578125 38.464844 10.960938 40.867188 10.960938 Z M 40.867188 10.960938 "/>
<path style=" stroke:none;fill-rule:evenodd;fill:rgb(30.19608%,29.803923%,29.411766%);fill-opacity:1;" d="M 29.792969 12.964844 C 31.671875 12.964844 33.199219 14.5 33.199219 16.390625 C 33.199219 18.285156 31.671875 19.816406 29.792969 19.816406 C 27.910156 19.816406 26.386719 18.285156 26.386719 16.390625 C 26.386719 15.757812 26.558594 15.167969 26.851562 14.660156 C 27.09375 15.265625 27.683594 15.691406 28.375 15.691406 C 29.277344 15.691406 30.011719 14.953125 30.011719 14.039062 C 30.011719 13.628906 29.867188 13.257812 29.621094 12.96875 C 29.679688 12.964844 29.734375 12.964844 29.792969 12.964844 Z M 29.792969 12.964844 "/>
<path style=" stroke:none;fill-rule:evenodd;fill:rgb(30.19608%,29.803923%,29.411766%);fill-opacity:1;" d="M 40.207031 12.964844 C 42.089844 12.964844 43.613281 14.5 43.613281 16.390625 C 43.613281 18.285156 42.089844 19.816406 40.207031 19.816406 C 38.324219 19.816406 36.800781 18.285156 36.800781 16.390625 C 36.800781 15.757812 36.96875 15.167969 37.265625 14.660156 C 37.511719 15.265625 38.101562 15.691406 38.789062 15.691406 C 39.695312 15.691406 40.425781 14.953125 40.425781 14.039062 C 40.425781 13.628906 40.28125 13.257812 40.035156 12.96875 C 40.09375 12.964844 40.148438 12.964844 40.207031 12.964844 Z M 40.207031 12.964844 "/>
<path style=" stroke:none;fill-rule:evenodd;fill:rgb(23.529412%,68.627453%,25.490198%);fill-opacity:1;" d="M 37.421875 45.503906 C 36.664062 46.277344 35.75 46.667969 34.699219 46.667969 C 33.84375 46.667969 33.121094 46.492188 32.378906 46.0625 L 32.378906 44.28125 C 32.976562 44.6875 33.722656 45.074219 34.460938 45.074219 C 36 45.074219 36.914062 44.007812 36.914062 42.5 C 36.914062 40.992188 35.96875 39.890625 34.429688 39.890625 C 33.742188 39.890625 33.183594 40.140625 32.75 40.636719 C 32.28125 41.179688 32.039062 41.949219 32.039062 42.972656 L 32.039062 50 L 31.925781 50 C 31.078125 50 30.390625 49.308594 30.390625 48.457031 L 30.390625 42.707031 C 30.390625 40.265625 31.871094 38.300781 34.421875 38.300781 C 35.679688 38.300781 36.703125 38.730469 37.476562 39.601562 C 38.203125 40.410156 38.566406 41.441406 38.566406 42.679688 C 38.566406 43.78125 38.183594 44.726562 37.421875 45.503906 Z M 2.417969 46.503906 C 0.804688 46.503906 0.00390625 45.398438 0.00390625 43.855469 L 0.00390625 38.003906 C 0.00390625 37.152344 0.691406 36.460938 1.539062 36.460938 L 1.652344 36.460938 L 1.652344 38.460938 L 4.441406 38.460938 L 4.441406 40.058594 L 1.652344 40.058594 L 1.652344 44.042969 C 1.652344 44.71875 1.953125 44.910156 2.597656 44.910156 L 4.441406 44.910156 L 4.441406 46.503906 Z M 12.003906 45.488281 C 11.191406 46.273438 10.210938 46.667969 9.070312 46.667969 C 7.941406 46.667969 6.96875 46.273438 6.152344 45.488281 C 5.335938 44.699219 4.925781 43.695312 4.925781 42.484375 C 4.925781 40.121094 6.71875 38.300781 9.070312 38.300781 C 10.199219 38.300781 11.175781 38.695312 11.996094 39.484375 C 12.820312 40.28125 13.230469 41.285156 13.230469 42.484375 C 13.230469 43.695312 12.824219 44.699219 12.003906 45.488281 Z M 19.722656 40.398438 C 19.480469 40.804688 19.292969 41.097656 19.164062 41.277344 C 19.015625 41.46875 18.871094 41.621094 18.730469 41.726562 C 19.875 42.101562 20.304688 42.902344 20.304688 44.09375 L 20.304688 46.503906 L 20.1875 46.503906 C 19.339844 46.503906 18.652344 45.816406 18.652344 44.960938 L 18.652344 44.253906 C 18.652344 43.484375 18.308594 42.960938 17.496094 42.960938 L 15.996094 42.960938 L 15.996094 46.503906 L 15.882812 46.503906 C 15.035156 46.503906 14.347656 45.816406 14.347656 44.960938 L 14.347656 36.398438 C 14.347656 35.542969 15.035156 34.851562 15.882812 34.851562 L 15.996094 34.851562 L 15.996094 41.347656 L 16.488281 41.347656 C 17.019531 41.347656 17.375 41.164062 17.574219 40.816406 L 18.964844 38.460938 L 20.84375 38.460938 Z M 28.246094 45.488281 C 27.429688 46.273438 26.449219 46.667969 25.3125 46.667969 C 24.183594 46.667969 23.207031 46.273438 22.394531 45.488281 C 21.574219 44.699219 21.167969 43.695312 21.167969 42.484375 C 21.167969 40.121094 22.957031 38.300781 25.3125 38.300781 C 26.4375 38.300781 27.417969 38.695312 28.238281 39.484375 C 29.0625 40.28125 29.472656 41.285156 29.472656 42.484375 C 29.472656 43.695312 29.0625 44.699219 28.246094 45.488281 Z M 27.054688 40.609375 C 26.597656 40.132812 26.019531 39.890625 25.3125 39.890625 C 23.789062 39.890625 22.882812 41.007812 22.882812 42.484375 C 22.882812 43.941406 23.8125 45.074219 25.3125 45.074219 C 26.808594 45.074219 27.738281 43.941406 27.738281 42.484375 C 27.738281 41.710938 27.507812 41.089844 27.054688 40.609375 Z M 10.816406 40.609375 C 10.359375 40.132812 9.78125 39.890625 9.070312 39.890625 C 7.550781 39.890625 6.640625 41.007812 6.640625 42.484375 C 6.640625 43.941406 7.574219 45.074219 9.070312 45.074219 C 10.566406 45.074219 11.5 43.941406 11.5 42.484375 C 11.5 41.710938 11.269531 41.089844 10.816406 40.609375 Z M 55.296875 45.441406 C 54.539062 46.261719 53.566406 46.667969 52.378906 46.667969 C 51.132812 46.667969 50.117188 46.234375 49.34375 45.367188 C 48.617188 44.542969 48.253906 43.515625 48.253906 42.285156 C 48.253906 40.113281 49.921875 38.300781 52.113281 38.300781 C 52.960938 38.300781 53.695312 38.476562 54.4375 38.886719 L 54.4375 40.683594 C 53.84375 40.28125 53.09375 39.890625 52.359375 39.890625 C 50.820312 39.890625 49.902344 40.957031 49.902344 42.46875 C 49.902344 43.957031 50.871094 45.074219 52.390625 45.074219 C 53.078125 45.074219 53.640625 44.816406 54.09375 44.292969 C 54.542969 43.777344 54.777344 43.015625 54.777344 41.992188 L 54.777344 36.398438 C 54.777344 35.542969 55.464844 34.851562 56.3125 34.851562 L 56.429688 34.851562 L 56.429688 42.253906 C 56.429688 43.558594 56.054688 44.625 55.296875 45.441406 Z M 59.957031 37.507812 C 59.785156 37.703125 59.539062 37.792969 59.234375 37.792969 C 58.667969 37.792969 58.261719 37.371094 58.261719 36.808594 C 58.261719 36.226562 58.660156 35.835938 59.234375 35.835938 C 59.785156 35.835938 60.207031 36.25 60.207031 36.808594 C 60.207031 37.082031 60.125 37.320312 59.957031 37.507812 Z M 68.347656 41.992188 C 68.347656 41.335938 68.101562 40.820312 67.605469 40.425781 C 67.15625 40.070312 66.601562 39.890625 65.925781 39.890625 C 64.429688 39.890625 63.472656 41.066406 63.472656 42.515625 C 63.472656 43.910156 64.488281 45.074219 65.910156 45.074219 C 66.898438 45.074219 67.425781 44.492188 67.992188 43.769531 L 67.992188 45.855469 C 67.703125 46.074219 67.375 46.308594 67.035156 46.445312 C 66.679688 46.597656 66.253906 46.667969 65.765625 46.667969 C 63.390625 46.667969 61.820312 44.691406 61.820312 42.402344 C 61.820312 41.226562 62.183594 40.253906 62.914062 39.5 C 63.6875 38.695312 64.707031 38.300781 65.949219 38.300781 C 68.308594 38.300781 69.996094 39.660156 69.996094 42.121094 L 69.996094 46.503906 L 69.882812 46.503906 C 69.035156 46.503906 68.347656 45.816406 68.347656 44.960938 Z M 45.746094 41.523438 C 45.539062 40.871094 45.277344 40.554688 44.675781 40.214844 C 43.246094 39.410156 41.839844 40.09375 41.183594 41.515625 Z M 44.488281 46.644531 C 43.433594 46.867188 42.398438 46.695312 41.390625 46.128906 C 40.40625 45.574219 39.746094 44.753906 39.414062 43.664062 C 38.75 41.46875 40.117188 39.019531 42.316406 38.425781 C 43.410156 38.128906 44.457031 38.261719 45.449219 38.820312 C 47.101562 39.75 47.703125 41.1875 47.597656 43.039062 L 40.949219 43.023438 C 41.042969 43.78125 41.511719 44.371094 42.164062 44.734375 C 42.824219 45.109375 43.4375 45.199219 44 45.019531 C 44.628906 44.824219 45.140625 44.308594 45.554688 43.828125 L 46.910156 44.820312 C 46.355469 45.816406 45.601562 46.40625 44.488281 46.644531 Z M 58.410156 38.460938 L 60.058594 38.460938 L 60.058594 46.503906 L 59.941406 46.503906 C 59.097656 46.503906 58.410156 45.816406 58.410156 44.960938 Z M 58.410156 38.460938 "/>
</g>
</svg>
